<svg width="32" height="23" viewBox="0 0 32 23" fill="none" xmlns="http://www.w3.org/2000/svg">
<g clip-path="url(#clip0_33515_1186)" filter="url(#filter0_d_33515_1186)">
<path fill-rule="evenodd" clip-rule="evenodd" d="M27.45 1.448C27.616 0.902 27.45 0.5 26.655 0.5H24.03C23.362 0.5 23.054 0.847 22.887 1.23C22.887 1.23 21.552 4.426 19.661 6.502C19.049 7.104 18.771 7.295 18.437 7.295C18.27 7.295 18.019 7.104 18.019 6.557V1.448C18.019 0.792 17.835 0.5 17.279 0.5H13.151C12.734 0.5 12.483 0.804 12.483 1.093C12.483 1.714 13.429 1.858 13.526 3.606V7.404C13.526 8.237 13.373 8.388 13.039 8.388C12.149 8.388 9.984 5.177 8.699 1.503C8.45 0.788 8.198 0.5 7.527 0.5H4.9C4.15 0.5 4 0.847 4 1.23C4 1.912 4.89 5.3 8.145 9.781C10.315 12.841 13.37 14.5 16.153 14.5C17.822 14.5 18.028 14.132 18.028 13.497V11.184C18.028 10.447 18.186 10.3 18.715 10.3C19.105 10.3 19.772 10.492 21.33 11.967C23.11 13.716 23.403 14.5 24.405 14.5H27.03C27.78 14.5 28.156 14.132 27.94 13.404C27.702 12.68 26.852 11.629 25.725 10.382C25.113 9.672 24.195 8.907 23.916 8.524C23.527 8.033 23.638 7.814 23.916 7.377C23.916 7.377 27.116 2.951 27.449 1.448H27.45Z" fill="#83B3D3"/>
</g>
<defs>
<filter id="filter0_d_33515_1186" x="0" y="0.5" width="32.0005" height="22" filterUnits="userSpaceOnUse" color-interpolation-filters="sRGB">
<feFlood flood-opacity="0" result="BackgroundImageFix"/>
<feColorMatrix in="SourceAlpha" type="matrix" values="0 0 0 0 0 0 0 0 0 0 0 0 0 0 0 0 0 0 127 0" result="hardAlpha"/>
<feOffset dy="4"/>
<feGaussianBlur stdDeviation="2"/>
<feComposite in2="hardAlpha" operator="out"/>
<feColorMatrix type="matrix" values="0 0 0 0 0 0 0 0 0 0 0 0 0 0 0 0 0 0 0.25 0"/>
<feBlend mode="normal" in2="BackgroundImageFix" result="effect1_dropShadow_33515_1186"/>
<feBlend mode="normal" in="SourceGraphic" in2="effect1_dropShadow_33515_1186" result="shape"/>
</filter>
<clipPath id="clip0_33515_1186">
<rect width="24.0005" height="14" fill="white" transform="translate(4 0.5)"/>
</clipPath>
</defs>
</svg>
